<svg xmlns="http://www.w3.org/2000/svg" viewBox="0 0 208.83 117.7"><defs><style>.cls-1{fill:#e4e1ea;}.cls-2{fill:#fc8165;}.cls-3{fill:#d7d7e2;}.cls-4{fill:#c1bece;}.cls-5{fill:#fff;}.cls-6{fill:#ea366e;}.cls-7{fill:#ddd7e0;}.cls-8{fill:#6876aa;}.cls-9{fill:#bebecc;}.cls-10{fill:#9893f9;}.cls-11{fill:#8758e7;}.cls-12{fill:#dedcff;}.cls-13{fill:#fca235;}.cls-14{fill:#ffaf45;}.cls-15{fill:#534579;}.cls-16{fill:#ada4f7;}.cls-17{fill:#50447e;}.cls-18{fill:#80baff;}</style></defs><title>자산 1</title><g id="레이어_2" data-name="레이어 2"><g id="Layer_1" data-name="Layer 1"><polygon class="cls-1" points="190.14 59.07 180.72 46.54 176.8 53.48 179.47 59.07 190.14 59.07"/><path class="cls-2" d="M206.51,64.48s2.18,13,2.3,13.25c.22.47-1.25,8.85-2.19,9.44S205.23,86,205.23,86s-.84,1.92-1.63,1.37S201.81,81,201.81,81s-8-5.72-7.07-13.3C196.12,56.75,206.51,64.48,206.51,64.48Z"/><path d="M207.65,85.53a.25.25,0,0,1-.25-.28l.75-5.88a.25.25,0,1,1,.5.06l-.75,5.89A.26.26,0,0,1,207.65,85.53Z"/><path class="cls-2" d="M195.81,73.16s1.84,6.5,2.21,7.79.79,3.53,2.06,2.82-.13-7.94-.13-7.94Z"/><path d="M199.62,84.15a.92.92,0,0,1-.36-.07c-.74-.31-1.07-1.53-1.36-2.61q-.06-.24-.12-.45c-.37-1.29-2.21-7.79-2.21-7.79l.48-.14s1.84,6.5,2.21,7.79c0,.14.08.3.13.46.23.87.55,2.06,1.07,2.28a.55.55,0,0,0,.5-.07c.77-.43.31-4.74-.26-7.67a.25.25,0,0,1,.2-.29.24.24,0,0,1,.29.2c.24,1.23,1.38,7.44,0,8.2A1.18,1.18,0,0,1,199.62,84.15Z"/><path d="M205.23,86.25A.26.26,0,0,1,205,86l.86-6.28a.26.26,0,0,1,.29-.21.25.25,0,0,1,.21.28L205.48,86A.25.25,0,0,1,205.23,86.25Z"/><rect class="cls-1" x="49.67" y="15.45" width="132.69" height="79.6" rx="8.95" ry="8.95"/><path class="cls-3" d="M188.51,89.41v3.76a10.93,10.93,0,0,1-10.93,10.93H54.46A10.93,10.93,0,0,1,43.52,93.17V89.41A10.94,10.94,0,0,1,54.46,78.48H177.58A10.94,10.94,0,0,1,188.51,89.41Z"/><path class="cls-4" d="M53.3,117.36h-.56A2.73,2.73,0,0,1,50,115l-2-14.5h8.61l-.62,14.26A2.75,2.75,0,0,1,53.3,117.36Z"/><path class="cls-4" d="M178.78,117.36h.57a2.74,2.74,0,0,0,2.72-2.38l2-14.5h-8.61l.63,14.26A2.73,2.73,0,0,0,178.78,117.36Z"/><circle class="cls-1" cx="48.68" cy="69.6" r="13.34"/><path class="cls-5" d="M94.67,19.61H59.47a.25.25,0,0,1,0-.5h35.2a.25.25,0,0,1,0,.5Z"/><path class="cls-4" d="M188.13,96a10.93,10.93,0,0,1-10.55,8.07H54.46A10.94,10.94,0,0,1,43.9,96Z"/><circle class="cls-3" cx="48.68" cy="69.6" r="5.92"/><path class="cls-4" d="M42.26,70.82H3.83a3.83,3.83,0,1,1,0-7.66H42.26a3.83,3.83,0,1,1,0,7.66Z"/><path class="cls-4" d="M8.82,117.7a2.09,2.09,0,0,1-2.09-2.08v-46a2.09,2.09,0,0,1,4.18,0v46A2.09,2.09,0,0,1,8.82,117.7Z"/><path class="cls-4" d="M37.68,117.7a2.09,2.09,0,0,1-2.09-2.08v-46a2.09,2.09,0,0,1,4.18,0v46A2.09,2.09,0,0,1,37.68,117.7Z"/><rect class="cls-6" x="21.59" y="50.48" width="9.7" height="12.68"/><path class="cls-7" d="M31.29,50.48c0,.3-2.17.55-4.85.55s-4.85-.25-4.85-.55,2.17-.56,4.85-.56S31.29,50.17,31.29,50.48Z"/><path class="cls-6" d="M31.29,62.17c-2,0-3.62-2.1-3.62-4.68s1.62-4.68,3.62-4.68,3.63,2.1,3.63,4.68S33.29,62.17,31.29,62.17Zm0-8.51c-1.52,0-2.77,1.72-2.77,3.83s1.25,3.83,2.77,3.83,2.77-1.72,2.77-3.83S32.82,53.66,31.29,53.66Z"/><path class="cls-8" d="M136.52,65.5l-.19-.6c-.17-.56-1.66-5.48-.64-6.48a.76.76,0,0,1,.85-.14,1.42,1.42,0,0,1,.85.78c.84,1.75-.59,5.68-.65,5.85Zm-.32-6.86a.27.27,0,0,0-.21.08c-.57.56,0,3.37.56,5.4.37-1.18,1-3.68.46-4.88a1,1,0,0,0-.6-.56A.68.68,0,0,0,136.2,58.64Z"/><path class="cls-9" d="M167,83.9c0,2.41-12.11,4.37-27,4.37s-27-2-27-4.37,12.11-4.38,27.05-4.38S167,81.48,167,83.9Z"/><path class="cls-10" d="M141.49,57.49S110.29,35,93.09,36.58s-.64,46.09-.64,46.09L116,77.3V74.57L144.85,79l-9.94-20Z"/><path class="cls-11" d="M165.79,71.68s19.38-30.8,14.32-42.4-22-9.57-22-9.57L137.44,56Z"/><path class="cls-12" d="M105.54,58.67a.25.25,0,0,1-.25-.2c0-.26-1.05-6.33,2.51-8s18,2.74,18.58,2.92a.26.26,0,0,1,.17.32.24.24,0,0,1-.31.16c-.15,0-14.92-4.47-18.23-2.94s-2.23,7.36-2.22,7.42a.25.25,0,0,1-.21.29Z"/><path class="cls-12" d="M101.52,59.84a.26.26,0,0,1-.25-.2c-.12-.5-2.85-12.41,3.3-14.25,8.07-2.42,26.32,8,27.1,8.44a.25.25,0,0,1-.25.43c-.19-.11-18.83-10.75-26.71-8.4-5.7,1.71-3,13.55-2.95,13.67a.25.25,0,0,1-.19.3Z"/><path class="cls-12" d="M95.48,61.57a.26.26,0,0,1-.25-.19c-.14-.6-3.39-14.67,1.83-19.42,6.26-5.69,15.91-1.08,16-1a.24.24,0,0,1,.12.33.25.25,0,0,1-.34.12c-.09-.05-9.44-4.51-15.44.95-5,4.55-1.71,18.79-1.68,18.93a.25.25,0,0,1-.19.3Z"/><path class="cls-12" d="M90.14,62.46a.25.25,0,0,1-.24-.18c-.05-.19-5.2-19.27,4.63-26a.25.25,0,0,1,.35.06.25.25,0,0,1-.07.35C85.27,43.22,90.33,62,90.38,62.14a.24.24,0,0,1-.17.31Z"/><path class="cls-12" d="M109.66,54.3a.26.26,0,0,1-.23-.16,29.53,29.53,0,0,0-4.08-6.56.25.25,0,1,1,.38-.32A30.08,30.08,0,0,1,109.89,54a.23.23,0,0,1-.13.32A.17.17,0,0,1,109.66,54.3Z"/><path class="cls-13" d="M115.1,87.41c-.91,3.46-25.16,5.25-26.07,5.42s-7.92-.41-10.21-1.67c-1.66-.91-.26-6.59,1.33-8.2s6.42-2.2,6.42-2.2l15-8.27,14.81,1.33S115.66,85.26,115.1,87.41Z"/><path class="cls-14" d="M69.88,90.85c-3.55.42-14.12-21.47-14.61-22.26s-2.53-7.51-2.2-10.11c.24-1.88,6-2.66,8.12-1.77s4.4,5.16,4.4,5.16L78.8,72.8,83,87.06S72.09,90.58,69.88,90.85Z"/><path class="cls-15" d="M159.58,70.34h-.07a.27.27,0,0,1-.19-.33l.87-3.26a.26.26,0,0,1,.32-.19.27.27,0,0,1,.19.33l-.86,3.26A.27.27,0,0,1,159.58,70.34Z"/><path class="cls-15" d="M134,62.16a.27.27,0,0,1-.27-.28l.09-3.46a.27.27,0,1,1,.54,0l-.09,3.47A.26.26,0,0,1,134,62.16Z"/><path class="cls-15" d="M136.9,64.32a.27.27,0,0,1-.27-.27V60.37a.27.27,0,0,1,.54,0v3.68A.27.27,0,0,1,136.9,64.32Z"/><path class="cls-16" d="M167.26,69.64s-3.58,15.06-11,17.43-28.14-6.35-31.83-6.77c-3.19-.35-40.78,9.86-40.78,9.86L73,65.69s33.13-11,45.62-13.56c8.3-1.68,21.67,3.47,32.29,8.61l.69.34c1.87.91,3.64,1.82,5.27,2.68l.47.25C163.25,67.14,167.26,69.64,167.26,69.64Z"/><path class="cls-5" d="M157.36,64c-2,1.82-6.74,5.83-9.82,5.85-3.31,0-17.8-3.44-24.78-5.09l-3.06-.72c-4.27-1-41.17,11.71-41.54,11.84h-.09a.25.25,0,0,1-.08-.49c1.53-.52,37.43-12.86,41.82-11.85l3.07.72c7,1.65,21.41,5.08,24.64,5.08,2.84,0,7.36-3.78,9.37-5.6Z"/><path class="cls-5" d="M151.62,61.08a37.85,37.85,0,0,1-7.49,1.39c-2.2,0-12.18-1.92-19.47-3.31-3.17-.61-5.68-1.09-6.61-1.23l-.19,0c-3.31,0-28.92,8-42.28,12.4h-.07a.24.24,0,0,1-.24-.17.25.25,0,0,1,.16-.31C77.05,69.31,115,57,118.12,57.43c.95.15,3.46.63,6.63,1.24C131.62,60,142,62,144.1,62a34.68,34.68,0,0,0,6.83-1.23Z"/><path class="cls-5" d="M123.79,80.55a.25.25,0,0,1-.18-.08c-.43-.45-4.23-4.43-3.63-6a1.12,1.12,0,0,1,1.09-.66,2,2,0,0,1,1.64.6c1.6,1.57,1.34,5.76,1.33,5.93a.25.25,0,0,1-.16.22Zm-2.54-6.28h-.15c-.54,0-.62.26-.65.34-.34.89,1.58,3.41,3.11,5.07,0-1.2-.1-3.87-1.2-5A1.51,1.51,0,0,0,121.25,74.27Z"/><circle class="cls-1" cx="182.06" cy="69.72" r="13.34"/><circle class="cls-3" cx="182.06" cy="69.72" r="5.92"/><polygon class="cls-1" points="40.26 59.26 49.67 46.73 53.59 53.66 50.92 59.26 40.26 59.26"/><path class="cls-11" d="M173.66,21.53s13.22,6.59,21.45,16S208.58,64.3,208.58,64.3l-16,3.87s-11.24-20.45-17.27-20.84C157.34,46.17,173.66,21.53,173.66,21.53Z"/><path class="cls-2" d="M146.43,10.26l-1.22,3.45s0,6.84-2.28,8S139,19.31,139,19.31L137.21,11l4.7-.27S147.65,6.81,146.43,10.26Z"/><rect class="cls-17" x="138.99" y="0.2" width="8.42" height="14.9" rx="1.17" ry="1.17" transform="translate(285.49 25.52) rotate(-175.9)"/><rect class="cls-18" x="139.91" y="0.27" width="8.42" height="14.9" rx="1.17" ry="1.17" transform="translate(287.33 25.72) rotate(-175.9)"/><path class="cls-17" d="M142.81,13.1a1,1,0,0,0,.85,1.1,1,1,0,0,0,.15-2.07A1,1,0,0,0,142.81,13.1Z"/><path class="cls-2" d="M134.24,12s3.26,11.33,5.7,10.27,3.91-7.54-.15-9.7S134.24,12,134.24,12Z"/><path class="cls-2" d="M135.72,10.42s-3.58-.32-2.53-2,7.5-2.63,8.24-.72S135.72,10.42,135.72,10.42Z"/><path class="cls-2" d="M136.18,13.36s-3.58-.32-2.52-2,7.5-2.63,8.24-.72S136.18,13.36,136.18,13.36Z"/><path class="cls-2" d="M138.32,15.77a4.51,4.51,0,0,1-2.38.22c-.71-.13-1.34-.47-1-1.28.67-1.62,6.14-3.42,7.07-1.86C142.71,14,139.83,15.22,138.32,15.77Z"/><path d="M135.09,10.57a.25.25,0,0,1,0-.49l4.4-.72a.25.25,0,1,1,.08.49l-4.4.72Z"/><path d="M135.23,13.73a.24.24,0,0,1-.24-.19.25.25,0,0,1,.18-.3l5.34-1.4a.25.25,0,0,1,.12.49l-5.33,1.39Z"/><path class="cls-11" d="M133,19.57l12.42-2.09,2.12,11.46.47-.66a27.37,27.37,0,0,1,10.08-8.57l-8.33,29.65s-7.83,3.65-14.53,0S133,19.57,133,19.57Z"/><path class="cls-17" d="M140.48,50.87a.31.31,0,0,1-.13,0,.25.25,0,0,1-.09-.34l5.5-9.36a.26.26,0,0,1,.44.26l-5.51,9.35A.24.24,0,0,1,140.48,50.87Z"/><path class="cls-17" d="M146.76,33.76a.6.6,0,0,1-.28-.08c-1.2-.67.48-4.16.83-4.85a.26.26,0,0,1,.28-.14.28.28,0,0,1,.2.24c0,1,0,4.28-.77,4.76A.48.48,0,0,1,146.76,33.76Zm.52-3.68c-.63,1.49-1,2.93-.56,3.17C147,33.18,147.24,31.78,147.28,30.08Z"/><path class="cls-17" d="M177.47,48.92a.24.24,0,0,1-.2-.11c-.45-.61-2.63-3.73-1.41-4.68a.56.56,0,0,1,.6-.09c.88.39,1.19,3.63,1.26,4.61a.25.25,0,0,1-.16.25Zm-1.23-4.43a.18.18,0,0,0-.08,0c-.5.39.16,1.9,1,3.18-.18-1.57-.52-3.06-.87-3.22Z"/><path class="cls-2" d="M174.3,17.54l-.93,5.83s-1.32,1.51-4.78,1.25c-2.58-.2-3.38-.92-3.38-.92l.82-2.9.81-2.83,6.39-.37Z"/><path d="M173.23,17.6a2,2,0,0,1-.26.54c-1.77,2.7-5.45,2.76-6.94,2.66l.81-2.83Z"/><path class="cls-2" d="M167.66,4.45s-4.23,6.84-3.67,11.1,4.38,4.15,6.73,3.68a7.44,7.44,0,0,0,3.58-1.69A3.19,3.19,0,0,0,178,16.8c1.67-1.73,1.13-4.08,0-4.77a3.29,3.29,0,0,0-2.65,0l1.41-2S173.61-1.39,167.66,4.45Z"/><path d="M166.7,13.78a.26.26,0,0,1-.25-.21,4.21,4.21,0,0,1,1.11-3.13.25.25,0,1,1,.37.34,3.74,3.74,0,0,0-1,2.71.25.25,0,0,1-.21.29Z"/><path d="M175.19,15.49a.25.25,0,0,1-.19-.09.25.25,0,0,1,0-.35l2.27-1.83a.25.25,0,0,1,.35,0,.25.25,0,0,1,0,.36l-2.27,1.82A.25.25,0,0,1,175.19,15.49Z"/><path d="M177.37,15.22h-.07l-1.35-.4a.25.25,0,0,1,.14-.48l1.35.39a.26.26,0,0,1,.17.32A.28.28,0,0,1,177.37,15.22Z"/><path d="M170.38,11.51h-.06a.24.24,0,0,1-.18-.3l.36-1.34a.25.25,0,0,1,.31-.17.24.24,0,0,1,.17.3l-.36,1.34A.25.25,0,0,1,170.38,11.51Z"/><path d="M166.39,10.64h-.07a.25.25,0,0,1-.17-.31L166.53,9a.25.25,0,0,1,.31-.17.24.24,0,0,1,.17.31l-.38,1.33A.25.25,0,0,1,166.39,10.64Z"/><path d="M171.65,9.15a.25.25,0,0,1-.23-.16c-.26-.67-1.16-.59-1.19-.58a.26.26,0,0,1-.28-.23.25.25,0,0,1,.22-.27,1.65,1.65,0,0,1,1.71.9.25.25,0,0,1-.14.33Z"/><path d="M166.47,7.88a.24.24,0,0,1-.18-.07.25.25,0,0,1,0-.36,1.58,1.58,0,0,1,1-.43,1,1,0,0,1,.78.4.25.25,0,0,1,0,.35.26.26,0,0,1-.36,0,.55.55,0,0,0-.42-.23,1.05,1.05,0,0,0-.64.29A.23.23,0,0,1,166.47,7.88Z"/><path d="M174.55,12.4a4.3,4.3,0,0,1-1.4-3.62,4.94,4.94,0,0,1,.91-2.47A18.83,18.83,0,0,1,170,5a5.68,5.68,0,0,1-1.66-1.09l-.63.55c-.57-.1-1.42-3.82-.46-4.33s5.44,1.78,5.44,1.78,5.11-.49,7.52,3.42-1.4,7.62-1.4,7.62S178.15,11,174.55,12.4Z"/><path d="M167.05,16a.25.25,0,0,1-.09-.48l1.19-.5a.25.25,0,0,1,.33.13.26.26,0,0,1-.14.33l-1.19.5Z"/><path class="cls-17" d="M169.74,28.07c-1.57,0-2.16-1.53-2.3-2.65-.78.59-2.51,1.77-3.53,1.64a.66.66,0,0,1-.53-.36c-.48-.89.6-3.27.82-3.74a.27.27,0,0,1,.16-.14.31.31,0,0,1,.21,0,10.8,10.8,0,0,0,9.2.54.23.23,0,0,1,.27.07.24.24,0,0,1,0,.28c-.08.17-2.14,4.31-4.33,4.32Zm-2.09-3.38.11,0a.26.26,0,0,1,.14.22c0,.11.07,2.64,1.84,2.64,1.36,0,2.86-2.18,3.6-3.49a11.14,11.14,0,0,1-8.8-.66c-.45,1-1,2.57-.72,3a.18.18,0,0,0,.15.1c.91.12,2.85-1.27,3.52-1.82A.3.3,0,0,1,167.65,24.69Z"/><path class="cls-17" d="M132.57,22.73a.26.26,0,0,1-.25-.19.25.25,0,0,1,.19-.3l13.25-2.91a.23.23,0,0,1,.29.19.25.25,0,0,1-.19.3l-13.24,2.91Z"/><path class="cls-17" d="M191.1,65.85a.24.24,0,0,1-.23-.18.24.24,0,0,1,.16-.31l16.15-5.23a.26.26,0,0,1,.31.17.24.24,0,0,1-.16.31l-16.15,5.23Z"/><path class="cls-5" d="M163.3,73.41a3.85,3.85,0,0,1-2.84-1.1c-1.67-1.7-1.52-4.7-1.51-4.83a.26.26,0,0,1,.25-.24.26.26,0,0,1,.25.27s-.14,2.91,1.37,4.45a3.45,3.45,0,0,0,2.68,1,.25.25,0,0,1,.26.24.25.25,0,0,1-.24.26Z"/><path class="cls-5" d="M82.69,86.25a.26.26,0,0,1-.24-.19.24.24,0,0,1,.17-.3L120.28,75.4a.26.26,0,0,1,.31.18.26.26,0,0,1-.18.31L82.75,86.24Z"/><path class="cls-5" d="M153.09,81.89c-4.62,0-28.95-5.87-30-6.12a.25.25,0,0,1-.19-.3.25.25,0,0,1,.3-.19c.26.06,25.31,6.11,29.87,6.11h0c4.28,0,7.94-8.72,8-8.8a.25.25,0,0,1,.33-.14.26.26,0,0,1,.13.33c-.15.37-3.82,9.06-8.43,9.11Z"/><path class="cls-5" d="M80.31,81.07a.25.25,0,0,1-.24-.18.25.25,0,0,1,.17-.31c1.51-.44,37-10.86,39.87-11.11,1.52-.11,8.65,1.42,16.19,3.07,6.41,1.39,13,2.84,14.68,2.86,3.35,0,8-7,8-7.1a.27.27,0,0,1,.35-.07.25.25,0,0,1,.07.35c-.19.3-4.8,7.32-8.4,7.32-1.72,0-8.08-1.41-14.81-2.87-7.17-1.57-14.59-3.2-16-3.06-2.79.24-39.41,11-39.78,11.09Z"/></g></g></svg>