<svg xmlns="http://www.w3.org/2000/svg" viewBox="0 0 164.08 115.79"><defs><style>.cls-1{fill:#e3e2ed;}.cls-2{fill:#ea366e;}.cls-3{fill:#dbd3e0;}.cls-4{fill:#ada4f7;}.cls-5{fill:#ffaf45;}.cls-6{fill:#8758e7;}.cls-7{fill:#fc8165;}.cls-8{fill:#bdb2c2;}.cls-9{fill:#ddd7e0;}.cls-10{fill:#ccc5d6;}.cls-11{fill:#fff;}.cls-12{fill:#fc97bc;}</style></defs><title>자산 2</title><g id="레이어_2" data-name="레이어 2"><g id="Layer_1" data-name="Layer 1"><polygon points="71.34 10.6 57.97 30.95 85.64 30.95 83.07 9.72 71.34 10.6"/><path class="cls-1" d="M162.24,95.71c0,2.32-36.32,4.2-81.12,4.2S0,98,0,95.71,36.32,91.5,81.12,91.5,162.24,93.38,162.24,95.71Z"/><path class="cls-2" d="M134.38,96.64H118.44a3.69,3.69,0,0,1-3.67-3.23l-3.42-26.88h30.11l-3.41,26.88A3.7,3.7,0,0,1,134.38,96.64Z"/><path class="cls-3" d="M141.46,66.53c0,.29-1,.57-2.58.8A98.69,98.69,0,0,1,126.4,68c-4.31,0-8.19-.17-10.93-.45-2.55-.27-4.12-.61-4.12-1s1.41-.69,3.73-1c.81-.09,1.74-.16,2.75-.24l.33,0c1.2-.07,2.52-.13,3.93-.17s2.76-.06,4.23-.06h.08c1,0,2,0,2.9,0,1.45,0,2.84.07,4.11.13l.67,0c1.75.1,3.27.23,4.47.39C140.38,65.92,141.46,66.22,141.46,66.53Z"/><path class="cls-4" d="M88.29,29.55a213.71,213.71,0,0,1,8,22.68c2.84,10.54,4,16.35,4,16.35l-12.19.51-7.58-10.9Z"/><polygon class="cls-5" points="62.74 88.13 76.01 88.13 76.19 59.16 61.19 59.16 62.74 88.13"/><path class="cls-6" d="M95.13,68.73H95c-2.77-.21-4.22-5.26-4.28-5.48A.24.24,0,0,1,90.8,63a.26.26,0,0,1,.27,0l1.43.74.85-2.08a.26.26,0,0,1,.21-.15.25.25,0,0,1,.23.1L95,63.28l1-1.7a.23.23,0,0,1,.25-.12.24.24,0,0,1,.21.19c0,.21,1,5.11-.27,6.61A1.32,1.32,0,0,1,95.13,68.73Zm-3.75-5.05c.46,1.3,1.74,4.39,3.66,4.54a.82.82,0,0,0,.74-.29c.83-.94.55-3.87.28-5.51l-.84,1.45A.25.25,0,0,1,95,64a.29.29,0,0,1-.21-.11l-1.16-1.66-.78,1.9a.23.23,0,0,1-.15.14.23.23,0,0,1-.2,0Z"/><path class="cls-5" d="M87.43,63.42s30.69,8.09,32.48,19.82S101.35,97.79,91,98.52s-14.85-3.79-14.85-3.79L70.38,59.16Z"/><path class="cls-5" d="M50.18,63.42S19.49,71.51,17.7,83.24s20.73,14.55,31,15.28,11.54-4.76,11.54-4.76l7-34.6Z"/><path class="cls-4" d="M53.67,62.27S56.39,27.59,64.21,25c8.56-2.83,21.57-.39,24.08,4.55S85.9,62.81,85.9,62.81,68,65.53,53.67,62.27Z"/><path class="cls-7" d="M88.84,94.47s-6.53,4.73-6.7,5.34-2.76,13.11-4.65,14.62a3.31,3.31,0,0,1-3.63.5S69.63,87,70,86s12.25-3.37,12.25-3.37Z"/><polygon class="cls-2" points="74.86 115.22 71.76 85.17 67.7 85.8 71.44 115.79 74.86 115.22"/><polygon class="cls-2" points="79.86 108.93 80.98 104.76 73.66 103.55 73.22 107.38 79.86 108.93"/><path class="cls-7" d="M48.54,94.2s6.53,4.73,6.7,5.34,2.77,13.11,4.65,14.62a3.31,3.31,0,0,0,3.63.5s4.23-27.9,3.85-28.91-12.25-3.37-12.25-3.37Z"/><polygon class="cls-2" points="62.52 114.96 65.63 84.9 69.68 85.53 65.94 115.52 62.52 114.96"/><polygon class="cls-2" points="57.53 108.66 56.4 104.49 63.73 103.28 64.16 107.11 57.53 108.66"/><polygon class="cls-5" points="65.26 80.14 55.24 99.54 41.22 94.04 47.08 80.14 65.26 80.14"/><polygon class="cls-5" points="71.72 81.08 82.68 100.48 95.61 94.97 89.76 81.08 71.72 81.08"/><rect class="cls-8" x="111.86" y="94.74" width="44" height="3.21" rx="1.39" ry="1.39" transform="translate(267.72 192.7) rotate(180)"/><path class="cls-9" d="M123.15,98h30.41l8.68-19.65H133a1.85,1.85,0,0,0-1.69,1.1Z"/><path class="cls-10" d="M125.79,98H156.2L164,80.41a1.5,1.5,0,0,0-1.37-2.11h-28.1Z"/><circle class="cls-11" cx="144.94" cy="88.12" r="2.58"/><path class="cls-11" d="M43.56,76.45c-.63-.11-5.75-1.07-6.43-2.83a1.22,1.22,0,0,1,.23-1.24.77.77,0,0,1,.58-.3C39.53,72,43.3,75.61,43.73,76a.25.25,0,0,1,.05.29A.24.24,0,0,1,43.56,76.45ZM38,72.58H38a.26.26,0,0,0-.22.1.75.75,0,0,0-.17.76c.42,1.08,3.35,1.94,5.16,2.34C41.38,74.53,39,72.58,38,72.58Z"/><path class="cls-11" d="M62.54,79.88h-.07a152.49,152.49,0,0,0-28.38-4.3.25.25,0,1,1,0-.5,152.78,152.78,0,0,1,28.49,4.32.25.25,0,0,1,.17.31A.25.25,0,0,1,62.54,79.88Z"/><path class="cls-11" d="M73.86,81.32a.24.24,0,0,1-.23-.16.25.25,0,0,1,.15-.32,118.23,118.23,0,0,1,29.71-5.77.26.26,0,0,1,.27.23.26.26,0,0,1-.24.27A118,118,0,0,0,74,81.31Z"/><path class="cls-11" d="M94.08,76.49a.25.25,0,0,1-.22-.13.24.24,0,0,1,0-.29c.42-.43,4.15-4.13,5.74-4a.77.77,0,0,1,.58.28,1.22,1.22,0,0,1,.25,1.24c-.66,1.78-5.76,2.81-6.34,2.92Zm5.49-3.95c-1,0-3.33,2-4.69,3.27,1.8-.43,4.72-1.33,5.12-2.41a.73.73,0,0,0-.17-.76.28.28,0,0,0-.22-.1Z"/><path class="cls-7" d="M40.61,60.28s-2.5,5.85-4.73,5.84c-2.6,0-5.47,0-5.71.07-.45.11-5.39,5.86-5.27,6.85s1.6.29,1.6.29-.85,1.67,0,1.91,5.41-2.37,5.41-2.37,9.92,2.91,12.56-.46C50.52,64.67,40.61,60.28,40.61,60.28Z"/><path class="cls-7" d="M30.17,66.19s-4.84,3.18-5.4,4.44.78,1,.78,1l3.62-2.8Z"/><path class="cls-7" d="M39.82,73.27s-4.67,1.7-5.77,2.18-2.87,1.45-3.1.17,5.54-4.39,5.54-4.39Z"/><path d="M31.71,76.5a1.06,1.06,0,0,1-.53-.12.92.92,0,0,1-.48-.72c-.25-1.38,4.68-4.12,5.67-4.65a.25.25,0,0,1,.24.44c-2.7,1.45-5.54,3.44-5.42,4.12,0,.28.18.35.22.37.43.23,1.43-.22,2.15-.55l.39-.17c1.1-.47,5.59-2.12,5.78-2.19a.26.26,0,0,1,.32.15.24.24,0,0,1-.15.32s-4.67,1.71-5.75,2.18l-.38.17A5.76,5.76,0,0,1,31.71,76.5Z"/><path d="M26.5,73.58a.22.22,0,0,1-.17-.07.25.25,0,0,1,0-.35L30.15,69a.24.24,0,0,1,.35,0,.25.25,0,0,1,0,.35L26.68,73.5A.27.27,0,0,1,26.5,73.58Z"/><path class="cls-4" d="M67.16,24.26s-10.49,1-16.17,9.51c-4,6-16.53,30.35-16.53,30.35l12.37,6.12L55.1,57.89Z"/><path d="M83.58,19.59,72.8,14.77l-.51-.23-1.37-.61S71.12,10.1,72.8,8a2.22,2.22,0,0,1,3.42-.44,10.68,10.68,0,0,1,3.09-.62,12.66,12.66,0,0,1,2.13,0,14.24,14.24,0,0,1,2.69.47c4.57,1.24,2.09,3.81,2.09,3.81a4.78,4.78,0,0,1,.44,3.38A7.15,7.15,0,0,1,83.58,19.59Z"/><path d="M79.36,8.92S78.16-2.83,71.21.64C65.39,3.54,70,12.49,74.52,11.88S79.36,8.92,79.36,8.92Z"/><path class="cls-7" d="M72.52,20.18l-1.6,5.54s.54,1.88,3.71,3.08c2.36.89,3.48-.13,3.48-.13l.81-5-5.48-3Z"/><path d="M72.62,19.84a1.9,1.9,0,0,0,0,.58c.44,3.13,4.48,5.54,5.83,6.07l.46-2.84Z"/><path class="cls-7" d="M83.8,11.37s.91,7.79-1.35,11.32-5.6,1.85-7.47.46a7.28,7.28,0,0,1-2.47-3A3.1,3.1,0,0,1,69.59,18c-.76-2.23.69-4.08,2-4.22a3.23,3.23,0,0,1,2.36,1.08l-.44-2.32S81,3.74,83.8,11.37Z"/><path d="M73.91,14.87s2.76,1.53,5.84-1.11,3.32-4,3.32-4l1,4a6.51,6.51,0,0,0,.73-4C84.3,8,83.23,8,83.23,8l-7-.42-3.36,4.67Z"/><path d="M80.89,20a.3.3,0,0,1-.15-.05.24.24,0,0,1-.06-.34,3.68,3.68,0,0,0,.26-2.8.26.26,0,0,1,.16-.32.24.24,0,0,1,.31.17,4,4,0,0,1-.32,3.23A.24.24,0,0,1,80.89,20Z"/><path d="M72.68,18a.27.27,0,0,1-.23-.14l-1.24-2.56a.25.25,0,0,1,.11-.33.26.26,0,0,1,.34.11l1.24,2.56a.25.25,0,0,1-.11.33A.23.23,0,0,1,72.68,18Z"/><path d="M72.22,17.09l-1.39-.21a.25.25,0,0,1-.21-.28.25.25,0,0,1,.29-.21l1.35.2a.25.25,0,0,1,.21.29A.26.26,0,0,1,72.22,17.09Z"/><path d="M84,14.84a.27.27,0,0,1-.12,0l-1.15-.59a.25.25,0,1,1,.23-.45l1.15.6a.26.26,0,0,1,.11.34A.26.26,0,0,1,84,14.84Z"/><path d="M78.66,14.05a.25.25,0,0,1-.24-.21.25.25,0,0,1,.2-.29l2.32-.38a.26.26,0,0,1,.29.2.25.25,0,0,1-.21.29L78.71,14Z"/><path d="M83.09,17.66a.26.26,0,0,1-.25-.26V16.05a.24.24,0,0,1,.11-.21l.53-.35a.25.25,0,0,1,.34.08.24.24,0,0,1-.07.34l-.41.27v1.23A.25.25,0,0,1,83.09,17.66Z"/><path d="M79,16.74a.25.25,0,0,1-.25-.25V15.13a.27.27,0,0,1,.12-.21l.72-.45a.26.26,0,0,1,.35.08.26.26,0,0,1-.09.35l-.6.37v1.22A.25.25,0,0,1,79,16.74Z"/><path d="M80.53,21.62a.25.25,0,0,1-.08-.49l1.4-.47a.25.25,0,0,1,.32.16.25.25,0,0,1-.16.31l-1.4.47Z"/><path class="cls-6" d="M76.74,29.39a6.59,6.59,0,0,1-2.49-.53c-3.61-1.47-4.09-3.78-4.11-3.88a.25.25,0,0,1,.5-.09s.46,2.15,3.8,3.5c2.55,1,4,.13,4,.09a.26.26,0,0,1,.35.07.25.25,0,0,1-.07.35A3.7,3.7,0,0,1,76.74,29.39Z"/><path class="cls-6" d="M54.05,59.72a.28.28,0,0,1-.15,0,.25.25,0,0,1-.09-.29c.14-.41,1.41-4,2.65-4.4a.77.77,0,0,1,.69.1.73.73,0,0,1,.33.61c.05,1.28-2.94,3.7-3.28,4A.27.27,0,0,1,54.05,59.72Zm2.66-4.27-.1,0c-.61.2-1.44,1.82-2,3.2,1.12-1,2.38-2.32,2.36-3a.25.25,0,0,0-.12-.21A.27.27,0,0,0,56.71,55.45Z"/><path class="cls-6" d="M86.08,62a.26.26,0,0,1-.25-.28l1.35-8.95a.31.31,0,0,1,0-.08s2.6-5,2.93-8.32S87.22,32.58,87.19,32.5a.25.25,0,0,1,.14-.33.25.25,0,0,1,.32.15c.14.35,3.32,8.63,3,12.1s-2.7,8-3,8.47l-1.34,8.9A.25.25,0,0,1,86.08,62Z"/><path d="M25.55,71.91a.27.27,0,0,1-.17-.06.25.25,0,0,1,0-.35l3.42-3.9a.26.26,0,0,1,.36,0,.25.25,0,0,1,0,.35l-3.42,3.9A.27.27,0,0,1,25.55,71.91Z"/><path class="cls-5" d="M138.88,67.33A98.69,98.69,0,0,1,126.4,68c-4.31,0-8.19-.17-10.93-.45,0,0-.78-1.08-.39-1.94a1.24,1.24,0,0,1,.39-.49,2.07,2.07,0,0,1,2.36.25c.2.14.33.25.33.25v-.27c0-.82.19-3.15,1.51-2.62a5.67,5.67,0,0,1,2.42,2.45c.15.26.23.44.23.44a17.07,17.07,0,0,1,4-.5h.08c2.2,0,2.2,1.58,2.2,1.58s.28-.72.7-1.55c.64-1.27,1.61-2.81,2.42-2.42a4.1,4.1,0,0,1,1.69,2.55l.08.34s.22-.13.59-.3a8.12,8.12,0,0,1,3-.8,1.58,1.58,0,0,1,1.5,1.19A5.23,5.23,0,0,1,138.88,67.33Z"/><path class="cls-6" d="M62.45,60.13a1.33,1.33,0,0,1-1-.46c-1.32-1.51-.31-6.4-.27-6.61a.25.25,0,0,1,.46-.08l1,1.71L63.79,53a.24.24,0,0,1,.23-.11.24.24,0,0,1,.2.15l.86,2.09,1.42-.74a.26.26,0,0,1,.28,0,.25.25,0,0,1,.08.26c-.06.21-1.52,5.26-4.28,5.48Zm-.93-6.31c-.28,1.64-.56,4.57.27,5.52a.88.88,0,0,0,.75.29c1.92-.15,3.2-3.25,3.65-4.55l-1.13.59a.25.25,0,0,1-.34-.13l-.78-1.91-1.16,1.66a.28.28,0,0,1-.22.11.24.24,0,0,1-.2-.12Z"/><path class="cls-6" d="M65.6,39.59a1.32,1.32,0,0,1-1-.47c-1.32-1.5-.31-6.4-.27-6.61a.25.25,0,0,1,.21-.19.23.23,0,0,1,.25.12l1,1.7,1.2-1.72a.25.25,0,0,1,.23-.1.27.27,0,0,1,.21.15l.85,2.08,1.43-.74a.27.27,0,0,1,.27,0,.24.24,0,0,1,.08.26c-.06.22-1.51,5.27-4.28,5.48Zm-.93-6.31c-.27,1.64-.55,4.57.28,5.51a.85.85,0,0,0,.74.29c1.92-.15,3.2-3.24,3.66-4.54l-1.13.58a.26.26,0,0,1-.21,0,.24.24,0,0,1-.14-.14l-.78-1.9-1.16,1.66a.31.31,0,0,1-.21.11.25.25,0,0,1-.21-.13Z"/><path class="cls-6" d="M52,46.15a1.37,1.37,0,0,1-.28,0,1.3,1.3,0,0,1-1-.67c-1-1.73.94-6.34,1-6.54a.26.26,0,0,1,.24-.15.25.25,0,0,1,.22.17l.64,1.86,1.5-1.45a.26.26,0,0,1,.25-.06.24.24,0,0,1,.17.19l.43,2.21,1.55-.45a.26.26,0,0,1,.26.08.26.26,0,0,1,0,.28C56.93,41.79,54.68,46.15,52,46.15ZM52,39.74c-.59,1.56-1.43,4.38-.8,5.47a.87.87,0,0,0,.67.43c1.91.23,3.77-2.56,4.47-3.75l-1.22.35a.27.27,0,0,1-.2,0,.25.25,0,0,1-.11-.17l-.4-2-1.46,1.4a.23.23,0,0,1-.23.07.26.26,0,0,1-.18-.16Z"/><path class="cls-6" d="M42.59,63.57l-.28,0a1.3,1.3,0,0,1-1-.67c-1-1.73.93-6.34,1-6.54a.24.24,0,0,1,.24-.15.25.25,0,0,1,.22.17l.64,1.86,1.5-1.45a.24.24,0,0,1,.25-.06.25.25,0,0,1,.17.19l.43,2.21,1.55-.45a.26.26,0,0,1,.26.08.27.27,0,0,1,0,.27C47.48,59.21,45.23,63.57,42.59,63.57Zm-.09-6.41c-.59,1.56-1.43,4.38-.8,5.47a.87.87,0,0,0,.67.43c1.91.23,3.77-2.56,4.47-3.75l-1.22.35a.24.24,0,0,1-.2,0,.25.25,0,0,1-.12-.16l-.39-2-1.46,1.4a.25.25,0,0,1-.23.07.24.24,0,0,1-.18-.17Z"/><path class="cls-6" d="M72.65,50a1.31,1.31,0,0,1-.81-.28c-1.59-1.21-1.58-6.21-1.58-6.42a.26.26,0,0,1,.17-.24.27.27,0,0,1,.27.07L72,44.63l.83-1.92a.27.27,0,0,1,.21-.15.26.26,0,0,1,.23.11l1.25,1.87,1.25-1a.23.23,0,0,1,.27,0,.27.27,0,0,1,.14.24c0,.22-.44,5.46-3.11,6.22A1.64,1.64,0,0,1,72.65,50Zm-1.87-6c0,1.67.36,4.59,1.36,5.35a.86.86,0,0,0,.79.14c1.85-.53,2.49-3.82,2.68-5.18l-1,.79a.25.25,0,0,1-.2.06.25.25,0,0,1-.17-.11l-1.14-1.72-.8,1.86a.26.26,0,0,1-.19.15.23.23,0,0,1-.23-.08Z"/><path class="cls-6" d="M81.37,60.13h-.13C78.47,59.91,77,54.86,77,54.65a.25.25,0,0,1,.09-.26.24.24,0,0,1,.27,0l1.43.74L79.59,53a.26.26,0,0,1,.2-.15A.25.25,0,0,1,80,53l1.19,1.72,1-1.71a.27.27,0,0,1,.26-.12.28.28,0,0,1,.21.2c0,.21,1,5.1-.27,6.61A1.36,1.36,0,0,1,81.37,60.13Zm-3.75-5.05c.46,1.3,1.74,4.4,3.66,4.55a.85.85,0,0,0,.74-.29c.83-1,.55-3.88.28-5.52l-.84,1.46a.24.24,0,0,1-.21.12.24.24,0,0,1-.21-.11l-1.16-1.66-.78,1.91a.29.29,0,0,1-.15.14.28.28,0,0,1-.2,0Z"/><path class="cls-6" d="M84.18,40.45h-.13c-2.76-.21-4.22-5.26-4.28-5.48a.26.26,0,0,1,.08-.26.28.28,0,0,1,.28,0l1.42.74.86-2.08a.25.25,0,0,1,.43,0L84,35l1-1.7a.24.24,0,0,1,.26-.12.23.23,0,0,1,.2.19c0,.21,1,5.11-.27,6.61A1.31,1.31,0,0,1,84.18,40.45ZM80.44,35.4c.45,1.3,1.73,4.39,3.65,4.54a.87.87,0,0,0,.75-.29c.83-.94.55-3.87.27-5.51l-.84,1.45a.25.25,0,0,1-.2.13.3.3,0,0,1-.22-.11L82.69,34l-.78,1.9a.22.22,0,0,1-.14.14.23.23,0,0,1-.2,0Z"/><path class="cls-6" d="M93.18,55.45H93c-2.76-.22-4.22-5.27-4.28-5.48a.27.27,0,0,1,.08-.26.24.24,0,0,1,.28,0l1.43.74.85-2.08a.24.24,0,0,1,.2-.16.23.23,0,0,1,.23.11L93,50l1-1.71a.27.27,0,0,1,.26-.12.26.26,0,0,1,.2.2c0,.21,1,5.1-.27,6.61A1.29,1.29,0,0,1,93.18,55.45ZM89.43,50.4c.45,1.3,1.74,4.4,3.65,4.55a.87.87,0,0,0,.75-.29c.83-.95.55-3.88.28-5.52l-.85,1.46a.24.24,0,0,1-.2.12.3.3,0,0,1-.22-.11L91.69,49l-.78,1.91a.29.29,0,0,1-.15.14.27.27,0,0,1-.2,0Z"/><path class="cls-12" d="M124,71.09c-3.49,0-7.14-.27-7.37-.28a.25.25,0,0,1-.23-.27.24.24,0,0,1,.27-.23c.08,0,8.52.62,12,0a.26.26,0,0,1,.29.2.25.25,0,0,1-.21.29A29.67,29.67,0,0,1,124,71.09Z"/></g></g></svg>