<svg xmlns="http://www.w3.org/2000/svg" viewBox="0 0 200.69 153.68"><defs><style>.cls-1{fill:#c1bece;}.cls-2{fill:#80baff;}.cls-3{fill:#efe9f2;}.cls-4{fill:#e4e1ea;}.cls-5{fill:#fc6e56;}.cls-6{fill:#ea366e;}.cls-7{fill:#fc8165;}.cls-8{fill:#6d47d6;}.cls-9{fill:#8758e7;}.cls-10{fill:#fff;}.cls-11{fill:#d7d7e2;}.cls-12{fill:#ffaf45;}.cls-13{fill:#c1bcc9;}.cls-14{fill:#fca235;}.cls-15{fill:#9d7cf7;}.cls-16{fill:#50447e;}.cls-17{fill:#ddd7e0;}.cls-18{fill:#ccc5d6;}.cls-19{fill:#5f8457;}.cls-20{fill:#eeecf1;}.cls-21{fill:#a7a1af;}.cls-22{fill:#b7b0c1;}</style></defs><title>자산 3</title><g id="레이어_2" data-name="레이어 2"><g id="Layer_1" data-name="Layer 1"><rect class="cls-1" x="152.41" y="91.73" width="7.08" height="48.29"/><path class="cls-1" d="M170.86,142.91h-29.7a2.23,2.23,0,1,1,0-4.45h29.7a2.23,2.23,0,1,1,0,4.45Z"/><circle class="cls-1" cx="140.35" cy="146.32" r="4.79"/><circle class="cls-1" cx="155.95" cy="146.32" r="4.79"/><circle class="cls-1" cx="171.48" cy="146.32" r="4.79"/><rect class="cls-2" x="118.96" y="44.62" width="11.39" height="14.9"/><path class="cls-3" d="M130.35,44.62c0,.36-2.55.65-5.7.65S119,45,119,44.62s2.55-.66,5.69-.66S130.35,44.26,130.35,44.62Z"/><path class="cls-2" d="M130.35,58.36c-2.35,0-4.26-2.47-4.26-5.5s1.91-5.5,4.26-5.5,4.26,2.46,4.26,5.5S132.7,58.36,130.35,58.36Zm0-10c-1.79,0-3.25,2-3.25,4.5s1.46,4.49,3.25,4.49,3.25-2,3.25-4.49S132.14,48.36,130.35,48.36Z"/><path class="cls-4" d="M172.46,38.49s19.67,8.7,14.74,36.63c-3.6,20.38-23.81,27-41.46,22.2S131,78.6,131,78.6Z"/><path class="cls-5" d="M174.27,13.84s-4.85-5.76-8.93-8.16-6-2.3-6.44-1.74,1.78,2.62,1.78,2.62-3.89-2.15-4.84-.92,2.27,3.5,2.27,3.5-3.1-1-3.18.41,6.16,5,6.16,5-3.65-.79-3.73.27,4.31,4.08,6.36,4.35a20,20,0,0,0,5-.26Z"/><path d="M168.23,15.3l-.09,0c-4.43-2-6.9-.53-6.93-.51a.22.22,0,0,1-.31-.08.22.22,0,0,1,.07-.3c.11-.07,2.69-1.62,7.35.48a.23.23,0,0,1-.09.43Z"/><path d="M160,14.11a.23.23,0,0,1-.16-.06.22.22,0,0,1,0-.32l5.49-5.56a.23.23,0,0,1,.32.32l-5.49,5.56A.25.25,0,0,1,160,14.11Z"/><path class="cls-5" d="M151,11.86s6.52-3.76,11.17-4.62,6.43-.11,6.65.57-2.57,1.86-2.57,1.86,4.4-.69,4.86.79S167.8,13,167.8,13s3.24.16,2.84,1.47-7.51,2.62-7.51,2.62,3.71.51,3.41,1.53S161.1,21,159.09,20.5a19.77,19.77,0,0,1-4.59-1.94Z"/><path class="cls-6" d="M155.07,20.59l-1.55-11s-16.11.42-22.6,7.7C120.79,28.71,144.8,42.38,144.8,42.38l4.5-16.62Z"/><path class="cls-6" d="M166.1,21.63l5.22-11.46s14.26,5,19.67,15.39c7,13.52-22,20.6-22,20.6l1.44-17.73Z"/><path d="M163.13,17.31a.26.26,0,0,1-.19-.1s-1.85-2.23-6.66-1.88a.24.24,0,0,1-.27-.23.25.25,0,0,1,.23-.27c5.11-.39,7,2,7.09,2.07a.26.26,0,0,1,0,.35A.25.25,0,0,1,163.13,17.31Z"/><path d="M164.42,17a.24.24,0,0,1-.22-.14l-3.27-7.11a.26.26,0,0,1,.13-.33.25.25,0,0,1,.33.12l3.26,7.11a.25.25,0,0,1-.12.33A.2.2,0,0,1,164.42,17Z"/><polygon class="cls-7" points="107.08 117.05 100.53 126.94 105.92 134.61 114.03 132.32 120.84 123.68 107.08 117.05"/><polygon class="cls-7" points="127.84 123.05 121.3 132.94 126.69 140.6 134.8 138.32 141.6 129.67 127.84 123.05"/><path class="cls-8" d="M109.47,145.25s10.18-16.14,7.49-17.44-6.7-.62-6.7-.62-3.67-6.72-7.24-6.7-7.4,2.73-7.4,2.73l-19.68-.17s-3.41,1.55-3.81,3.19c-.31,1.28,21,14.56,30.37,20.33a5.11,5.11,0,0,0,7-1.32Z"/><path class="cls-9" d="M129.38,151.12s10.25-14.68,7.53-15.93a10,10,0,0,0-4.43-1.11s-2.92-5.44-6.44-6.05c-3.71-.64-5.33,1.25-5.33,1.25l-23.86-1a16.14,16.14,0,0,0-1.64,3.8c-.29,1.29,17.73,14.93,27.23,20.5a5.11,5.11,0,0,0,6.94-1.47Z"/><path class="cls-10" d="M179.37,86.39a.27.27,0,0,1-.19-.08.25.25,0,0,1,0-.35c4.36-4,5.21-12,5.22-12.06a.25.25,0,1,1,.49.06c0,.33-.87,8.2-5.37,12.36A.23.23,0,0,1,179.37,86.39Z"/><path class="cls-11" d="M174.86,78.79c.69,2.21-4.49,5.79-11.58,8s-13.38,2.2-14.06,0,4.49-5.79,11.58-8S174.18,76.58,174.86,78.79Z"/><path class="cls-6" d="M155.79,22a14.16,14.16,0,0,0-9.44,3.6c-4.32,3.9-6.43,35.84-6.21,36.26s2.77,1.4,14,2.22c12.12.87,16.77.37,17.25-.17s2.33-33.82-.23-36.86S163.15,22.15,155.79,22Z"/><polygon class="cls-12" points="156.12 25.33 151.84 62.45 154.67 62.93 159.02 25.5 156.12 25.33"/><path class="cls-1" d="M180.74,152.33a1.84,1.84,0,0,1-1.84-1.84V61.12h3.68v89.37A1.85,1.85,0,0,1,180.74,152.33Z"/><path class="cls-1" d="M66.7,152.33a1.84,1.84,0,0,1-1.84-1.84V61.12h3.68v89.37A1.85,1.85,0,0,1,66.7,152.33Z"/><path class="cls-4" d="M65.13,59.75H99.22a2,2,0,0,0,0-4H65.13a2,2,0,0,0,0,4Z"/><rect class="cls-4" x="47.23" y="14.1" width="60.79" height="30.77" rx="3.19" ry="3.19" transform="translate(155.25 58.98) rotate(180)"/><rect class="cls-13" x="73.15" y="34.08" width="8.96" height="26.21" transform="translate(155.25 94.37) rotate(180)"/><rect class="cls-13" x="68.77" y="32.08" width="17.71" height="4.54" rx="2.12" ry="2.12" transform="translate(155.25 68.7) rotate(180)"/><path class="cls-10" d="M100.42,16.3H82.18a.25.25,0,0,1,0-.5h18.24a.25.25,0,0,1,0,.5Z"/><path class="cls-12" d="M146.42,23.85a2.79,2.79,0,0,1-1.59-.33.67.67,0,0,1-.28-.56.66.66,0,0,1,.28-.55c1-.81,5.32.25,5.81.37a.26.26,0,0,1,.19.25.25.25,0,0,1-.2.24A22.18,22.18,0,0,1,146.42,23.85Zm-.23-1.25a2,2,0,0,0-1.06.2.18.18,0,0,0-.08.16.19.19,0,0,0,.09.17c.52.41,2.58.2,4.27-.12A18.19,18.19,0,0,0,146.19,22.6Z"/><path class="cls-12" d="M175.79,29.25c-1.71,0-5.09-1.76-5.52-2a.25.25,0,0,1-.13-.27.27.27,0,0,1,.23-.2c.51,0,5-.25,6.15.93a1,1,0,0,1,.31.76.76.76,0,0,1-.39.64A1.39,1.39,0,0,1,175.79,29.25Zm-4.42-2c1.8.87,4.17,1.79,4.83,1.42a.25.25,0,0,0,.13-.23.54.54,0,0,0-.16-.38C175.47,27.37,173,27.25,171.37,27.26Z"/><path class="cls-12" d="M168.23,25.23a.22.22,0,0,1-.11,0,.25.25,0,0,1-.12-.33l6-13.28a.25.25,0,0,1,.33-.12.24.24,0,0,1,.12.33l-6,13.28A.27.27,0,0,1,168.23,25.23Z"/><path class="cls-12" d="M152.53,22.1a.26.26,0,0,1-.25-.21l-1.95-11.68a.25.25,0,0,1,.21-.28.23.23,0,0,1,.28.2l2,11.68a.24.24,0,0,1-.2.29Z"/><path class="cls-14" d="M162,61.82l-8,14.1-28.85,50.73-21.82-7.07s11.89-29.46,13.66-34c1.54-3.94,17.72-18,22-21.72l1.06-.91Z"/><path class="cls-12" d="M169.77,61.82,154,75.92l-15-12.08,1.06-.91L162,61.82Z"/><path class="cls-12" d="M171.24,59.39c0-.46.52,12.89-.46,18.44s-31.26,57.71-31.26,57.71l-18.11-10.11,26.28-54.89Z"/><path class="cls-1" d="M198.26,64.25H49.18a2.43,2.43,0,0,1,0-4.86H198.26a2.43,2.43,0,1,1,0,4.86Z"/><path class="cls-10" d="M121.41,125.22a.22.22,0,0,1-.11,0,.26.26,0,0,1-.12-.34l26.2-54.25-4.88-4a.24.24,0,0,1,0-.35.25.25,0,0,1,.35,0l5,4.11a.25.25,0,0,1,.07.3l-26.28,54.43A.24.24,0,0,1,121.41,125.22Z"/><path class="cls-10" d="M167.72,70c-4.21-.14-5.2-4.68-5.21-4.72a.25.25,0,1,1,.49-.1c0,.17.92,4.2,4.73,4.32a.25.25,0,0,1,0,.5Z"/><path class="cls-10" d="M134.88,97.31c-.58,0-5.48-.55-6.19-1.88a.79.79,0,0,1,0-.8,1,1,0,0,1,.69-.51c1.63-.32,5.24,2.43,5.65,2.75a.25.25,0,0,1-.16.44Zm-5.17-2.72-.22,0a.48.48,0,0,0-.35.26.29.29,0,0,0,0,.32c.38.71,2.89,1.26,4.86,1.52C132.75,95.83,130.77,94.59,129.71,94.59Z"/><path class="cls-15" d="M128.92,151.72s-19.65-19.93-30.34-23.07c-3.18-.94-4.49-.91-5.07.11s.08,3.88,1.75,6.12c1.26,1.68,24,17.31,28.08,18.51S128.92,151.72,128.92,151.72Z"/><path class="cls-16" d="M94.93,124.07a.26.26,0,0,1-.25-.27c0-.06.33-6.31-1.17-7.89a.91.91,0,0,0-.67-.32.66.66,0,0,0-.61.29c-.5.81.21,3,.82,4.5.27.54.44,1,.49,1.09a.26.26,0,0,1-.13.33.26.26,0,0,1-.33-.12c-.06-.13-.25-.53-.48-1.08-.52-1.06-1.33-2.36-2.08-2.56a.63.63,0,0,0-.63.15.61.61,0,0,0-.24.5c0,1.36,2.75,4,3.82,4.94a.25.25,0,0,1,0,.35.26.26,0,0,1-.36,0c-.16-.14-4-3.45-4-5.32a1.13,1.13,0,0,1,.42-.89,1.2,1.2,0,0,1,1.08-.25,2.71,2.71,0,0,1,1.2.89,4,4,0,0,1,0-2.82,1.14,1.14,0,0,1,1-.53,1.39,1.39,0,0,1,1,.48c1.64,1.73,1.31,8,1.3,8.26A.26.26,0,0,1,94.93,124.07Z"/><path class="cls-16" d="M118.17,130.26a.26.26,0,0,1-.25-.23c-.2-2.22-.93-5.81-2-6-.13,0-.18,0-.22.07-.49.59.25,3.53.83,5.25a.26.26,0,0,1-.13.31.26.26,0,0,1-.32-.11c-1.07-1.9-3-4.45-3.81-4.11a.2.2,0,0,0-.15.17c-.19.75,1.49,3,2.58,4.2a.25.25,0,0,1,0,.36.25.25,0,0,1-.35,0c-.31-.35-3-3.41-2.7-4.66a.71.71,0,0,1,.46-.52c1-.4,2.46,1.29,3.42,2.71-.38-1.45-.71-3.28-.19-3.9a.67.67,0,0,1,.68-.24c1.81.27,2.37,5.79,2.43,6.42a.25.25,0,0,1-.22.27Z"/><rect class="cls-9" x="15.26" y="46.88" width="10.2" height="13.34" transform="translate(40.73 107.11) rotate(180)"/><path class="cls-17" d="M15.26,46.88c0,.33,2.29.59,5.1.59s5.11-.26,5.11-.59-2.29-.58-5.11-.58S15.26,46.56,15.26,46.88Z"/><path class="cls-9" d="M11.45,54.27c0-2.72,1.71-4.93,3.81-4.93s3.82,2.21,3.82,4.93-1.71,4.92-3.82,4.92S11.45,57,11.45,54.27Zm.9,0c0,2.21,1.31,4,2.91,4s2.91-1.81,2.91-4-1.3-4-2.91-4S12.35,52.05,12.35,54.27Z"/><rect class="cls-12" x="27.44" y="45.15" width="11.39" height="14.9"/><path class="cls-3" d="M38.83,45.15c0,.12-.28.23-.77.32a28.8,28.8,0,0,1-4.93.33,21.89,21.89,0,0,1-5.44-.46c-.16-.06-.25-.12-.25-.19s.07-.12.2-.16a20.32,20.32,0,0,1,5.49-.5,28.46,28.46,0,0,1,4.82.32C38.51,44.9,38.83,45,38.83,45.15Z"/><path class="cls-12" d="M38.83,58.89c-2.34,0-4.26-2.46-4.26-5.5s1.92-5.5,4.26-5.5,4.26,2.47,4.26,5.5S41.18,58.89,38.83,58.89Zm0-10c-1.79,0-3.25,2-3.25,4.49s1.46,4.5,3.25,4.5,3.25-2,3.25-4.5S40.63,48.9,38.83,48.9Z"/><path class="cls-4" d="M38.06,45.47a28.8,28.8,0,0,1-4.93.33,21.89,21.89,0,0,1-5.44-.46L27.64,45,25.86,34.21l10.07-1.66,2,12.26Z"/><path class="cls-17" d="M35.93,32.55c0,.25-1.32.69-3.25,1.1-.44.09-.9.18-1.39.26L31,34c-2.78.46-5.08.57-5.13.25s2.16-1,4.94-1.4l1-.15c.49-.07.95-.13,1.37-.17C34.78,32.32,35.9,32.34,35.93,32.55Z"/><path class="cls-4" d="M23.3,41c-.44-2.68.89-5.14,3-5.48s4.13,1.56,4.57,4.24-.89,5.14-3,5.48S23.74,43.65,23.3,41Zm.89-.15c.36,2.19,1.94,3.76,3.53,3.5s2.58-2.25,2.22-4.44-2-3.76-3.53-3.5S23.83,38.63,24.19,40.82Z"/><path class="cls-18" d="M33.18,32.49c-.17.41-.34.8-.5,1.16-.44.09-.9.18-1.39.26.13-.34.31-.77.52-1.25,1.34-3.2,3.78-8.79,4.33-8.58S34.7,29,33.18,32.49Z"/><rect class="cls-6" x="5.93" y="75.84" width="9.87" height="12.91"/><ellipse class="cls-17" cx="10.87" cy="75.84" rx="4.94" ry="0.57"/><path class="cls-19" d="M15.8,87.46c-2,0-3.69-2.14-3.69-4.76s1.66-4.77,3.69-4.77,3.69,2.14,3.69,4.77S17.84,87.46,15.8,87.46Zm0-8.66c-1.55,0-2.81,1.75-2.81,3.9s1.26,3.89,2.81,3.89,2.82-1.75,2.82-3.89S17.36,78.8,15.8,78.8Z"/><rect class="cls-4" x="0.25" y="88.72" width="48.33" height="59.48" rx="4.4" ry="4.4" transform="translate(48.83 236.93) rotate(180)"/><path class="cls-1" d="M48.58,108.5H.25a.25.25,0,0,1-.25-.25A.25.25,0,0,1,.25,108H48.58a.25.25,0,0,1,.25.25A.25.25,0,0,1,48.58,108.5Z"/><path class="cls-1" d="M48.58,129.24H.25A.25.25,0,0,1,0,129a.25.25,0,0,1,.25-.25H48.58a.25.25,0,0,1,.25.25A.25.25,0,0,1,48.58,129.24Z"/><path class="cls-20" d="M19.05,99H29.79a1.15,1.15,0,0,0,0-2.29H19.05a1.15,1.15,0,1,0,0,2.29Z"/><path class="cls-20" d="M19.05,139.86H29.79a1.14,1.14,0,1,0,0-2.28H19.05a1.14,1.14,0,1,0,0,2.28Z"/><path class="cls-20" d="M19.05,119H29.79a1.15,1.15,0,0,0,0-2.29H19.05a1.15,1.15,0,1,0,0,2.29Z"/><polygon class="cls-10" points="19.01 107.77 31.8 120.78 41.53 107.77 19.01 107.77"/><path class="cls-21" d="M18.91,59.48a127.45,127.45,0,0,0,15.66-.29c7.51-.9,11.27-3.56,11.27-3.56s.16,4.65-5,8.43S18.91,59.48,18.91,59.48Z"/><path class="cls-18" d="M12.92,74.13H40.84A1.16,1.16,0,0,1,42,75.29V87.58a1.17,1.17,0,0,1-1.17,1.17H12.92a1.16,1.16,0,0,1-1.16-1.16V75.29A1.16,1.16,0,0,1,12.92,74.13Z" transform="translate(0.68 -0.22) rotate(0.48)"/><rect class="cls-22" x="11.61" y="67.77" width="31.81" height="7.31" rx="0.84" ry="0.84" transform="matrix(1, 0.01, -0.01, 1, 0.59, -0.23)"/><rect class="cls-18" x="11.64" y="63.31" width="29.18" height="4.45" rx="0.63" ry="0.63" transform="translate(0.54 -0.22) rotate(0.48)"/><rect class="cls-17" x="12.45" y="60.29" width="29.18" height="4.45" rx="0.63" ry="0.63" transform="translate(6.2 -2.33) rotate(5.58)"/><path class="cls-7" d="M156.07,19.13l-.47,2.48-.36,1.89a5.83,5.83,0,0,0,3.17,1.75c3,.5,4.1-1.31,4.1-1.31l.92-5.5s-1,.11-1,.11Z"/><path d="M156.07,19.13l-.47,2.48a5.51,5.51,0,0,0,3,.18,8.82,8.82,0,0,0,4.85-3.35s-1,.11-1,.11Z"/><path class="cls-7" d="M156,6.34s-3.54,6.91-2.66,11,4.55,3.66,6.77,3a7.18,7.18,0,0,0,3.31-1.92,3.07,3.07,0,0,0,3.47-1c1.47-1.81.77-4-.36-4.6A3.22,3.22,0,0,0,164,13l1.21-2S161.28.24,156,6.34Z"/><path d="M155.81,15.41a.26.26,0,0,1-.24-.19,4.08,4.08,0,0,1,.82-3.12.25.25,0,0,1,.35,0,.24.24,0,0,1,0,.35,3.64,3.64,0,0,0-.73,2.69.24.24,0,0,1-.18.3Z"/><path d="M164.12,16.38a.26.26,0,0,1-.18-.07.26.26,0,0,1,0-.36L166,14a.25.25,0,0,1,.36,0,.25.25,0,0,1,0,.35l-2.05,1.94A.22.22,0,0,1,164.12,16.38Z"/><path d="M166.2,16h-.06l-1.32-.27a.25.25,0,0,1-.19-.3.24.24,0,0,1,.29-.19l1.33.27a.25.25,0,0,1,.19.3A.26.26,0,0,1,166.2,16Z"/><path d="M160.55,10.46a.24.24,0,0,1-.23-.15c-.28-.62-1.14-.5-1.17-.5a.24.24,0,0,1-.29-.2.25.25,0,0,1,.21-.29,1.6,1.6,0,0,1,1.7.79.25.25,0,0,1-.12.33Z"/><path d="M156.75,9.43a.24.24,0,0,1-.21-.12.59.59,0,0,0-.41-.31,1.25,1.25,0,0,0-.86.29A.25.25,0,0,1,155,8.9a1.76,1.76,0,0,1,1.26-.39,1.12,1.12,0,0,1,.75.54.26.26,0,0,1-.09.35A.28.28,0,0,1,156.75,9.43Z"/><path d="M154,1.15A7.63,7.63,0,0,1,155,1c.27-.59.91-1,2.25-1a6.13,6.13,0,0,1,2.62.62c.65-.44,1.73-.65,3.51.12A5.79,5.79,0,0,1,165.94,3a2.89,2.89,0,0,1,2.41,1.16,3.09,3.09,0,0,1,.49,3.45,2.9,2.9,0,0,1,.9,1.86c.29,2.38-2.56,3.94-2.56,3.94A3.8,3.8,0,0,0,164,13a.89.89,0,0,1-1.25-.42c-.49-.86.81-3.27.81-3.27A6.23,6.23,0,0,1,160,8.9a5.42,5.42,0,0,1-1.87-2.84s-1.12,2-4.07,1S150.75,1.81,154,1.15Z"/><path class="cls-12" d="M155.39,22.7s-3.43,5.45-2.78,5.44,4.92-2.53,4.92-2.53,2.77,3.82,3.68,4,1.51-6.6,1.51-6.6-.87,2.22-4.29,2C155.26,24.78,155.39,22.7,155.39,22.7Z"/><path d="M156.56,17.33a1.65,1.65,0,0,1-.31,0,.25.25,0,0,1-.19-.3.25.25,0,0,1,.3-.19,1.67,1.67,0,0,0,1.4-.46.25.25,0,1,1,.33.38A2.34,2.34,0,0,1,156.56,17.33Z"/><path d="M159,12.56a1.31,1.31,0,0,1-1-.4.25.25,0,0,1,.39-.32s.41.45,1.33,0a.25.25,0,1,1,.2.45A2.17,2.17,0,0,1,159,12.56Z"/><path d="M155,12a1.53,1.53,0,0,1-1-.35.25.25,0,0,1,0-.35.24.24,0,0,1,.35,0,1.08,1.08,0,0,0,1.05.18.25.25,0,1,1,.2.45A1.35,1.35,0,0,1,155,12Z"/><path class="cls-12" d="M163.9,42.71a4.65,4.65,0,0,1-.82-.08,2.9,2.9,0,0,1-2-1.39c-1.25-2.08-.17-5.61-.13-5.77a.26.26,0,0,1,.28-.17l7.07,1.09a.25.25,0,0,1,.21.27c0,.15-.41,3.81-2.51,5.36A3.35,3.35,0,0,1,163.9,42.71Zm-2.56-6.88c-.2.77-.83,3.54.14,5.16a2.45,2.45,0,0,0,1.7,1.15,3,3,0,0,0,2.49-.52c1.63-1.21,2.16-4,2.28-4.78Z"/><path class="cls-10" d="M138.62,130.26a.27.27,0,0,1-.12,0,.25.25,0,0,1-.09-.34c9.2-16.76,26.69-48.75,27-49.92a51.66,51.66,0,0,0,1-10.21.25.25,0,0,1,.25-.25.25.25,0,0,1,.25.25,52.52,52.52,0,0,1-1.05,10.34c-.39,1.51-26,48.05-27,50A.25.25,0,0,1,138.62,130.26Z"/><path class="cls-10" d="M141.75,131.94a.27.27,0,0,1-.12,0l-18.72-10.07-18.23-5.48a.25.25,0,0,1-.17-.31.24.24,0,0,1,.31-.16l18.28,5.49,18.76,10.09a.25.25,0,0,1,.11.34A.27.27,0,0,1,141.75,131.94Z"/></g></g></svg>