<svg xmlns="http://www.w3.org/2000/svg" viewBox="0 0 315.18 315.18"><defs><style>.cls-1{fill:#1a1a1a;}</style></defs><title>자산 3</title><g id="레이어_2" data-name="레이어 2"><g id="레이어_1-2" data-name="레이어 1"><path class="cls-1" d="M157.59,0A157.59,157.59,0,1,0,315.18,157.59,157.59,157.59,0,0,0,157.59,0Zm62.19,53.26a11.9,11.9,0,1,1-11.9,11.89A11.89,11.89,0,0,1,219.78,53.26ZM157.92,219.82a63.17,63.17,0,0,1-14.79-1.76c-4.5-2.53-7.24-7.81,6.85-18.47,18.09-13.67,54.77-32.81,70.94-41A63,63,0,0,1,157.92,219.82Zm63-74.36a385.38,385.38,0,0,1-54.68,28.75c-21.65,9.26-42.14,16.23-58.89,20.23-22,5.26-39.79,5.9-41.79-.35-2.23-7,7.22-16.67,23.38-27.67l.4,6.25c-7.27,5.54-8.53,8.33-7.57,10.27,1.29,2.56,6.93,2.41,19,0-4.28-8.51-6-16-6-26.18a63.05,63.05,0,0,1,63.06-63c27.46,0,50.83,14.76,59.48,39.26,10.73-7.39,13.24-10.34,12.24-13-1.1-3-4.28-3.85-14-2.27l-2.74-4c19.51-4.19,33.06-3,35.45,2.61C251,122.45,240.58,132.89,220.92,145.46Z"/></g></g></svg>